<svg viewBox="0 0 400 200" xmlns="http://www.w3.org/2000/svg" fill-rule="evenodd" clip-rule="evenodd" stroke-linecap="round" stroke-miterlimit="10"><path d="M62.763 155.276l-1.467-1.532 1.532-1.467" fill="none" stroke="#b54fde"/><path d="M161.47 125.729c-13.942 28.812-91.921 28.165-100.174 28.015" fill="none" stroke="#b54fde" stroke-linejoin="round" stroke-miterlimit="1.5"/><ellipse cx="152.97" cy="69.966" rx="5.5" ry="6.349" fill="none" stroke="#ec37be" stroke-linejoin="round" stroke-miterlimit="1.5"/><path d="M62.071 47.809l-1.792-1.136 1.136-1.791" fill="none" stroke="#e85a2f"/><path d="M137.589 60.416c-1.098-29.658-69.668-15.422-77.31-13.743" fill="none" stroke="#e85a2f" stroke-linejoin="round" stroke-miterlimit="1.5"/><path d="M216.898 8.362l1.902.938-.937 1.903" fill="none" stroke="#9ac339"/><path d="M170.975 43.315C169.966 26.706 212.897 11.334 218.8 9.3" fill="none" stroke="#9ac339" stroke-linejoin="round" stroke-miterlimit="1.5"/><text x="222.54" y="13.075" font-family="'Noteworthy-Light','Noteworthy'" font-weight="300" font-size="14" fill="#898989">ru<tspan x="233.373px 235.542px" y="13.075px 13.075px">le</tspan> or ru<tspan x="270.857px 273.027px 278.662px 284.63px 289.985px" y="13.075px 13.075px 13.075px 13.075px 13.075px">leset</tspan></text><text x="14.733" y="51.867" font-family="'Noteworthy-Light','Noteworthy'" font-weight="300" font-size="14" fill="#898989">s<tspan x="20.7px 26.615px" y="51.867px 51.867px">el</tspan>ec<tspan x="40.073px 44.273px 50.695px" y="51.867px 51.867px 51.867px">tor</tspan></text><text x="-.438" y="158.436" font-family="'Noteworthy-Light','Noteworthy'" font-weight="300" font-size="14" fill="#898989">decl<tspan x="20.3px 26.985px 30.8px 36.803px 41.563px 43.61px 50.033px" y="158.436px 158.436px 158.436px 158.436px 158.436px 158.436px 158.436px">aration</tspan></text><text x="260.109" y="62.864" font-family="'Noteworthy-Light','Noteworthy'" font-weight="300" font-size="14" fill="#898989">co<tspan x="273.146px 282.194px 288.599px 291.066px 297.489px 303.491px 307.691px 314.114px" y="62.864px 62.864px 62.864px 62.864px 62.864px 62.864px 62.864px 62.864px">mbinator</tspan></text><text x="310.733" y="181.854" font-family="'Noteworthy-Light','Noteworthy'" font-weight="300" font-size="14" fill="#898989">decl<tspan x="331.47px 338.155px 341.97px 347.973px 352.733px 354.78px 361.203px" y="181.854px 181.854px 181.854px 181.854px 181.854px 181.854px 181.854px">aration</tspan> b<tspan x="377.583px 379.753px" y="181.854px 181.854px">lo</tspan>ck</text><ellipse cx="170.97" cy="121.315" rx="95.5" ry="78" fill="none" stroke="#9ac339" stroke-linejoin="round" stroke-miterlimit="1.5"/><ellipse cx="176.47" cy="129.315" rx="77" ry="47" fill="none" stroke="#4799f1" stroke-linejoin="round" stroke-miterlimit="1.5"/><path d="M305.017 177.265l1.759 1.185-1.185 1.76" fill="none" stroke="#4799f1"/><path d="M237.44 158.01c20.016 28.463 63.339 21.553 69.336 20.44" fill="none" stroke="#4799f1" stroke-linejoin="round" stroke-miterlimit="1.5"/><ellipse cx="198.47" cy="117.315" rx="48" ry="12" fill="none" stroke="#b54fde" stroke-linejoin="round" stroke-miterlimit="1.5"/><g font-family="'Noteworthy-Light','Noteworthy'" font-weight="300" font-size="14"><text x="274.822" y="153.376" transform="translate(-137.53 -77.685)">h1 &gt; sm<tspan x="312.237px 318.922px 321.232px" y="153.376px 153.376px 153.376px">all</tspan></text><text x="274.822" y="181.796" transform="translate(-137.53 -77.685)">{</text><text x="296.977" y="196.006" transform="translate(-137.53 -77.685)">pr<tspan x="307.162px 313.584px" y="196.006px 196.006px">op</tspan>er<tspan x="329.544px 333.604px" y="196.006px 196.006px">ty</tspan></text><text x="340.062" y="196.006" transform="translate(-137.53 -77.685)">: v<tspan x="351.612px 358.297px 360.467px" y="196.006px 196.006px 196.006px">alu</tspan>e;</text><text x="296.977" y="224.426" transform="translate(-137.53 -77.685)">pr<tspan x="307.162px 313.584px" y="224.426px 224.426px">op</tspan>er<tspan x="329.544px 333.604px 340.062px" y="224.426px 224.426px 224.426px">ty:</tspan> v<tspan x="351.612px 358.297px 360.467px" y="224.426px 224.426px 224.426px">alu</tspan>e;</text><text x="274.822" y="238.636" transform="translate(-137.53 -77.685)">}</text></g><ellipse cx="160.47" cy="69.815" rx="34" ry="12.5" fill="none" stroke="#e85a2f" stroke-linejoin="round" stroke-miterlimit="1.5"/><path d="M253.504 57.445l1.266 1.701-1.701 1.267" fill="none" stroke="#ec37be"/><path d="M158.47 67.815c30.944-17.309 89.268-9.67 96.3-8.669" fill="none" stroke="#ec37be" stroke-linejoin="round" stroke-miterlimit="1.5"/></svg>